<svg xmlns="http://www.w3.org/2000/svg" viewBox="0 0 64 64" width="64" height="64" role="img">
<defs><clipPath id="cadre"><circle cx="32" cy="32" r="32"/></clipPath></defs>
<g clip-path="url(#cadre)">
<rect width="64" height="64" fill="#f5b7b1"/>
<path d="M9 64 Q9 49 22 46 L42 46 Q55 49 55 64 Z" fill="#1abc9c"/>
<rect x="28" y="40" width="8" height="8" fill="#8d5524"/>
<circle cx="17" cy="32" r="3.4" fill="#8d5524"/>
<circle cx="47" cy="32" r="3.4" fill="#8d5524"/>
<circle cx="32" cy="30" r="15" fill="#8d5524"/>
<path d="M16 34 Q15 24 20 22 L20 30 Q17 32 17 34 Z" fill="#2b2b2b"/><path d="M48 34 Q49 24 44 22 L44 30 Q47 32 47 34 Z" fill="#2b2b2b"/>
<circle cx="25" cy="30" r="1.9" fill="#3a2a20"/>
<circle cx="39" cy="30" r="1.9" fill="#3a2a20"/>
<path d="M27 38 Q32 41.5 37 38" fill="none" stroke="#9c4a37" stroke-width="1.7" stroke-linecap="round"/>
<g fill="none" stroke="#111" stroke-width="1.6"><circle cx="25" cy="30" r="4.2"/><circle cx="39" cy="30" r="4.2"/><line x1="29.2" y1="30" x2="34.8" y2="30"/><line x1="20.8" y1="30" x2="17" y2="28.5"/><line x1="43.2" y1="30" x2="47" y2="28.5"/></g>
</g></svg>
