<svg xmlns="http://www.w3.org/2000/svg" viewBox="0 0 64 64" width="64" height="64" role="img">
<defs><clipPath id="cadre"><circle cx="32" cy="32" r="32"/></clipPath></defs>
<g clip-path="url(#cadre)">
<rect width="64" height="64" fill="#cfd8dc"/>
<path d="M9 64 Q9 49 22 46 L42 46 Q55 49 55 64 Z" fill="#7f8c8d"/>
<rect x="28" y="40" width="8" height="8" fill="#f6d3b0"/>
<circle cx="17" cy="32" r="3.4" fill="#f6d3b0"/>
<circle cx="47" cy="32" r="3.4" fill="#f6d3b0"/>
<circle cx="32" cy="30" r="15" fill="#f6d3b0"/>
<circle cx="32" cy="10" r="5" fill="#d9b36b"/><path d="M16 30 Q16 11 32 11 Q48 11 48 30 Q48 20 32 20 Q16 20 16 30 Z" fill="#d9b36b"/>
<circle cx="25" cy="30" r="1.9" fill="#3a2a20"/>
<circle cx="39" cy="30" r="1.9" fill="#3a2a20"/>
<path d="M27 38 Q32 41.5 37 38" fill="none" stroke="#9c4a37" stroke-width="1.7" stroke-linecap="round"/>
<path d="M28 12 L24 9 L24 15 Z" fill="#e74c3c"/><path d="M36 12 L40 9 L40 15 Z" fill="#e74c3c"/><circle cx="32" cy="12" r="2" fill="#e74c3c"/>
</g></svg>
