<svg xmlns="http://www.w3.org/2000/svg" viewBox="0 0 64 64" width="64" height="64" role="img">
<defs><clipPath id="cadre"><circle cx="32" cy="32" r="32"/></clipPath></defs>
<g clip-path="url(#cadre)">
<rect width="64" height="64" fill="#f7dc6f"/>
<path d="M9 64 Q9 49 22 46 L42 46 Q55 49 55 64 Z" fill="#e74c3c"/>
<rect x="28" y="40" width="8" height="8" fill="#f6d3b0"/>
<circle cx="17" cy="32" r="3.4" fill="#f6d3b0"/>
<circle cx="47" cy="32" r="3.4" fill="#f6d3b0"/>
<circle cx="32" cy="30" r="15" fill="#f6d3b0"/>
<circle cx="18" cy="24" r="5" fill="#a55728"/><circle cx="24" cy="16" r="5" fill="#a55728"/><circle cx="32" cy="13" r="5" fill="#a55728"/><circle cx="40" cy="16" r="5" fill="#a55728"/><circle cx="46" cy="24" r="5" fill="#a55728"/><circle cx="20" cy="30" r="5" fill="#a55728"/><circle cx="44" cy="30" r="5" fill="#a55728"/>
<circle cx="25" cy="30" r="1.9" fill="#3a2a20"/>
<circle cx="39" cy="30" r="1.9" fill="#3a2a20"/>
<path d="M27 38 Q32 41.5 37 38" fill="none" stroke="#9c4a37" stroke-width="1.7" stroke-linecap="round"/>
<g fill="none" stroke="#8e44ad" stroke-width="1.6"><circle cx="25" cy="30" r="4.2"/><circle cx="39" cy="30" r="4.2"/><line x1="29.2" y1="30" x2="34.8" y2="30"/><line x1="20.8" y1="30" x2="17" y2="28.5"/><line x1="43.2" y1="30" x2="47" y2="28.5"/></g>
</g></svg>
