<svg xmlns="http://www.w3.org/2000/svg" viewBox="0 0 64 64" width="64" height="64" role="img">
<defs><clipPath id="cadre"><circle cx="32" cy="32" r="32"/></clipPath></defs>
<g clip-path="url(#cadre)">
<rect width="64" height="64" fill="#c3e6cb"/>
<path d="M9 64 Q9 49 22 46 L42 46 Q55 49 55 64 Z" fill="#2980b9"/>
<rect x="28" y="40" width="8" height="8" fill="#c68642"/>
<circle cx="17" cy="32" r="3.4" fill="#c68642"/>
<circle cx="47" cy="32" r="3.4" fill="#c68642"/>
<circle cx="32" cy="30" r="15" fill="#c68642"/>
<path d="M16 30 Q16 11 32 11 Q48 11 48 30 Q48 20 32 20 Q16 20 16 30 Z" fill="#3a2a1a"/>
<circle cx="25" cy="30" r="1.9" fill="#3a2a20"/>
<circle cx="39" cy="30" r="1.9" fill="#3a2a20"/>
<path d="M27 38 Q32 41.5 37 38" fill="none" stroke="#9c4a37" stroke-width="1.7" stroke-linecap="round"/>
<g fill="none" stroke="#333" stroke-width="1.6"><circle cx="25" cy="30" r="4.2"/><circle cx="39" cy="30" r="4.2"/><line x1="29.2" y1="30" x2="34.8" y2="30"/><line x1="20.8" y1="30" x2="17" y2="28.5"/><line x1="43.2" y1="30" x2="47" y2="28.5"/></g>
</g></svg>
